<svg xmlns="http://www.w3.org/2000/svg" xmlns:xlink="http://www.w3.org/1999/xlink" viewBox="0 0 440.54 82.07"><defs><style>.cls-1{fill:#3c3333;}.cls-2{fill:url(#linear-gradient);}.cls-3{fill:#fff;}.cls-4,.cls-5,.cls-6{fill:none;stroke-linejoin:round;}.cls-4,.cls-5{stroke:#fff;}.cls-4{stroke-width:2.5px;}.cls-5,.cls-6{stroke-width:2px;}.cls-6{stroke:url(#linear-gradient-2);}</style><linearGradient id="linear-gradient" y1="35.49" x2="54.99" y2="35.49" gradientUnits="userSpaceOnUse"><stop offset="0" stop-color="#fbb040"/><stop offset="1" stop-color="#ed8ecc"/></linearGradient><linearGradient id="linear-gradient-2" x1="20.53" y1="26" x2="34.46" y2="26" xlink:href="#linear-gradient"/></defs><title>logo-ti</title><g id="Layer_2" data-name="Layer 2"><g id="Layer_6" data-name="Layer 6"><path class="cls-1" d="M138.28,47.18q-.57,8-1.14,16a10.3,10.3,0,0,0-1.71-.14h-3.31a10.09,10.09,0,0,0-1.67.14q2.28-12.25,4.06-24.36t3.28-24.57l1.46.25a9.35,9.35,0,0,0,1.46.11,9.13,9.13,0,0,0,1.35-.11l1.5-.25q1.92,4.27,4,8.69t4.2,8.79q2.1,4.38,4.2,8.58t4,8q4.27-8,8.51-16.7T176.6,14.2a15.9,15.9,0,0,0,3.06.36,15.67,15.67,0,0,0,3-.36l1.53,13.18,1.6,13.78q.78,6.73,1.57,12.57t1.42,9.4a28.77,28.77,0,0,0-2.88-.14h-5.8q-1.5,0-3,.14-.36-7.33-1.18-15.88t-1.67-17h-.14l-8,16.52q-3.92,8.12-7.76,16.31c-.24,0-.46-.08-.68-.11a6.53,6.53,0,0,0-1.35,0q-.32,0-.68.11-3.85-8-7.66-16T140.13,31H140Q138.85,39.2,138.28,47.18Z"/><path class="cls-1" d="M204.16,46.11a23.89,23.89,0,0,0,.57,5.34,13.33,13.33,0,0,0,1.75,4.31,8.57,8.57,0,0,0,3,2.85,8.43,8.43,0,0,0,4.24,1,13.3,13.3,0,0,0,8.76-3.21l.85.64-1.57,4a14.44,14.44,0,0,1-4.27,2.17,21.52,21.52,0,0,1-6.55.82,22.44,22.44,0,0,1-6.62-1,14.1,14.1,0,0,1-5.52-3.17A15.48,15.48,0,0,1,195,54.33a21.23,21.23,0,0,1-1.39-8.08,23.48,23.48,0,0,1,1.25-8,15.87,15.87,0,0,1,3.45-5.7,14.13,14.13,0,0,1,5.23-3.42,18.57,18.57,0,0,1,6.59-1.14q7.05,0,10.79,4.13t3.74,11.68v1.5a3.3,3.3,0,0,1-.07.86Zm11-3.21a27.62,27.62,0,0,0-1.32-8.55q-1.18-3.21-4-3.21a3.58,3.58,0,0,0-2.63,1.07A7.72,7.72,0,0,0,205.51,35a18.26,18.26,0,0,0-1,3.77,35.53,35.53,0,0,0-.39,4.17Z"/><path class="cls-1" d="M240.91,37.7a17.83,17.83,0,0,1,4.49-7.23,9.18,9.18,0,0,1,6.27-2.32,4.42,4.42,0,0,1,.61,0,3.68,3.68,0,0,0,.53,0,21.11,21.11,0,0,0-.32,2.28q-.11,1.21-.11,2.85v3.49a9.71,9.71,0,0,0,.07,1.21l-.64.57a7.64,7.64,0,0,0-1.6-.71,6.68,6.68,0,0,0-2-.29,6.4,6.4,0,0,0-5.06,2.1,7.24,7.24,0,0,0-1.85,5v2.85q0,4.34.11,8.19t.46,7.41a15.53,15.53,0,0,0-2.31-.14h-6a16.73,16.73,0,0,0-2.35.14q.36-3.56.46-7.41t.11-8.19V44.68q0-4.34-.11-8.15t-.46-7.66q1.21.14,2.46.25t2.46.11q1.21,0,2.46-.11t2.46-.25l-.21,8.69Z"/><path class="cls-1" d="M258.85,15.41a5.63,5.63,0,1,1,11.25,0,5.63,5.63,0,1,1-11.25,0Zm.85,29.27q0-4.34-.11-8.15t-.46-7.66q1,.14,2.35.25t3,.11a31.67,31.67,0,0,0,5.34-.36q-.36,3.85-.46,7.66t-.11,8.15v2.85q0,4.34.11,8.19t.46,7.41a15.53,15.53,0,0,0-2.31-.14h-6a16.74,16.74,0,0,0-2.35.14q.36-3.56.46-7.41t.11-8.19Z"/><path class="cls-1" d="M288.27,34.21a15.19,15.19,0,0,1,4.66-4.63A11.41,11.41,0,0,1,299,27.95q5.34,0,8.23,3.1t2.88,10q0,3.63-.14,6.41T309.85,53q0,2.28.11,4.95t.25,5.16a15.83,15.83,0,0,0-2.35-.14h-6a15.82,15.82,0,0,0-2.35.14,84.6,84.6,0,0,0,.64-8.72q.14-5,.14-11.5,0-4.49-1.53-6.59a5.41,5.41,0,0,0-9,.68,16.38,16.38,0,0,0-1.5,7.69v2.85q0,4.34.11,8.19t.46,7.41a15.53,15.53,0,0,0-2.31-.14h-6a16.73,16.73,0,0,0-2.35.14q.36-3.56.46-7.41t.11-8.19V44.68q0-4.34-.11-8.15t-.46-7.66q1.28.14,2.53.25t2.53.11q1.28,0,2.53-.11l2.67-.25-.28,5.34Z"/><path class="cls-1" d="M342,31.58a9.28,9.28,0,0,1,2.81,3.24,9.89,9.89,0,0,1,1,4.67,11.39,11.39,0,0,1-1,4.81A10.87,10.87,0,0,1,342,48a12.87,12.87,0,0,1-4.34,2.42,17.6,17.6,0,0,1-5.66.86q-.78,0-1.53,0t-1.67,0a1.79,1.79,0,0,0-1.46.78,2.83,2.83,0,0,0-.61,1.78A3.21,3.21,0,0,0,328,56.5a7.24,7.24,0,0,0,4.17,1.07l5.27.07q6,.07,8.8,2.24t2.81,6.94A13.61,13.61,0,0,1,347.35,74a14.67,14.67,0,0,1-4.49,4.7,18.63,18.63,0,0,1-6.09,2.6,28.46,28.46,0,0,1-6.48.78q-6.7,0-10.43-2.6A8.51,8.51,0,0,1,318,67.08a12.74,12.74,0,0,1,5.09-3.31v-.14a6.53,6.53,0,0,1-3-2,5,5,0,0,1-1.1-3.31,7.12,7.12,0,0,1,1.82-4.56,9,9,0,0,1,4.81-3v-.14A12.31,12.31,0,0,1,319,46.82a11,11,0,0,1-2.42-7.41,10.39,10.39,0,0,1,1.1-4.84,10.22,10.22,0,0,1,3.1-3.6,14.81,14.81,0,0,1,4.77-2.24,22.51,22.51,0,0,1,6.13-.78q1.28,0,2.64.11t2.64.18q.92.07,1.89.11t2.1,0q1.78,0,3.7,0t3.85,0q-.07.43-.11.85c0,.29,0,.57,0,.86s0,.57,0,.85.06.57.11.85l-6.27-.29Zm-1.14,39.1a7.09,7.09,0,0,0-.71-3.38,4.91,4.91,0,0,0-2-2,9.29,9.29,0,0,0-3.24-1,33.93,33.93,0,0,0-4.34-.25,12.72,12.72,0,0,0-5.13.71,5.18,5.18,0,0,0-1.82,2.07,9.2,9.2,0,0,0-.21,7.73,7.09,7.09,0,0,0,2,2.53,9.46,9.46,0,0,0,3,1.53,11.75,11.75,0,0,0,3.6.53,9.62,9.62,0,0,0,3.7-.68,8.55,8.55,0,0,0,2.81-1.85,7.9,7.9,0,0,0,1.78-2.71A8.75,8.75,0,0,0,340.83,70.68Zm-9.47-39.81q-4.84,0-4.84,9.4a15.6,15.6,0,0,0,.43,4,8.54,8.54,0,0,0,1.1,2.6,4.21,4.21,0,0,0,1.5,1.42,3.59,3.59,0,0,0,1.67.43,3.73,3.73,0,0,0,3.49-2.07q1.14-2.06,1.14-7t-1.28-6.8A3.76,3.76,0,0,0,331.36,30.87Z"/><path class="cls-1" d="M375.3,58a14.06,14.06,0,0,1-4.67,4.52,12,12,0,0,1-6.09,1.53q-5.34,0-8.23-3t-2.88-9.9q0-3.63.14-6.41t.14-5.56q0-2.28-.11-4.95t-.25-5.38q.92.14,2.35.25t3,.11q1.57,0,3-.11t2.35-.25q-.5,3.85-.64,8.9t-.14,11.54q0,4.49,1.53,6.59a5.41,5.41,0,0,0,9-.68,16.39,16.39,0,0,0,1.5-7.69V44.68q0-4.34-.11-8.15t-.46-7.66a31.65,31.65,0,0,0,5.34.36q1.64,0,3-.11t2.35-.25q-.36,3.85-.46,7.66t-.11,8.15v2.85q0,4.34.11,8.19t.46,7.41a22.71,22.71,0,0,0-2.53-.14h-5.06a26.69,26.69,0,0,0-2.67.14l.28-5.13Z"/><path class="cls-1" d="M402.08,46.11a23.89,23.89,0,0,0,.57,5.34,13.33,13.33,0,0,0,1.75,4.31,8.57,8.57,0,0,0,3,2.85,8.43,8.43,0,0,0,4.24,1,13.3,13.3,0,0,0,8.76-3.21l.85.64-1.57,4a14.44,14.44,0,0,1-4.27,2.17,21.52,21.52,0,0,1-6.55.82,22.44,22.44,0,0,1-6.62-1,14.1,14.1,0,0,1-5.52-3.17,15.48,15.48,0,0,1-3.77-5.59,21.23,21.23,0,0,1-1.39-8.08,23.48,23.48,0,0,1,1.25-8,15.87,15.87,0,0,1,3.45-5.7,14.13,14.13,0,0,1,5.23-3.42,18.57,18.57,0,0,1,6.59-1.14q7.05,0,10.79,4.13t3.74,11.68v1.5a3.3,3.3,0,0,1-.07.86Zm11-3.21a27.62,27.62,0,0,0-1.32-8.55q-1.18-3.21-4-3.21a3.58,3.58,0,0,0-2.63,1.07A7.72,7.72,0,0,0,403.43,35a18.26,18.26,0,0,0-1,3.77,35.53,35.53,0,0,0-.39,4.17Z"/><path class="cls-1" d="M428.86,58.43a5.84,5.84,0,1,1,11.68,0,5.28,5.28,0,0,1-1.71,4,6.12,6.12,0,0,1-8.26,0A5.28,5.28,0,0,1,428.86,58.43Z"/><path class="cls-1" d="M79.24,22a17.65,17.65,0,0,0-.18-2.49q-1.07,0-2.63.07l-3.35.18q-1.78.11-3.63.29T66,20.47q.14-.78.25-1.57a11.59,11.59,0,0,0,0-3.13Q66.17,15,66,14.2l4.38.14q2,.07,4,.11l4.42.07q2.39,0,5.73,0t5.73,0l4.38-.07q2,0,3.88-.11l4.1-.14q-.14.78-.25,1.57a11.59,11.59,0,0,0,0,3.13q.11.78.25,1.57-1.43-.21-3.21-.39t-3.53-.29l-3.31-.18Q91,19.54,90,19.54a7.4,7.4,0,0,0-.11,1q0,.64,0,1.5V43.61q0,5.91.14,10.5t.43,9A22.49,22.49,0,0,0,87.75,63H81.34a22.46,22.46,0,0,0-2.64.14q.28-4.42.43-9t.14-10.5V25.81Q79.27,23.74,79.24,22Z"/><path class="cls-1" d="M106.69,15.41a5.63,5.63,0,1,1,11.25,0,5.63,5.63,0,1,1-11.25,0Zm.85,29.27q0-4.34-.11-8.15T107,28.87q1,.14,2.35.25t3,.11a31.65,31.65,0,0,0,5.34-.36q-.36,3.85-.46,7.66t-.11,8.15v2.85q0,4.35.11,8.19t.46,7.41a15.53,15.53,0,0,0-2.31-.14h-6a16.74,16.74,0,0,0-2.35.14q.36-3.56.46-7.41t.11-8.19Z"/><rect class="cls-2" y="7.99" width="54.99" height="54.99" rx="11.74" ry="11.74"/><rect class="cls-3" y="3.95" width="54.99" height="54.99" rx="11.74" ry="11.74"/><rect class="cls-1" width="54.99" height="54.99" rx="11.74" ry="11.74"/><line class="cls-4" x1="27.5" y1="54.99" x2="27.5" y2="49.16"/><path class="cls-5" d="M32.15,10.2c0-4.07-4.65-7.36-4.65-7.36s-4.65,3.3-4.65,7.36,4.65,7.36,4.65,7.36S32.15,14.26,32.15,10.2Z"/><path class="cls-5" d="M19.61,11.54c-2.88-2.88-8.49-1.92-8.49-1.92s-1,5.62,1.92,8.49S21.53,20,21.53,20,22.49,14.41,19.61,11.54Z"/><path class="cls-5" d="M11.7,21.35C7.63,21.35,4.34,26,4.34,26s3.3,4.65,7.36,4.65S19.06,26,19.06,26,15.76,21.35,11.7,21.35Z"/><path class="cls-5" d="M13,33.88c-2.88,2.88-1.92,8.49-1.92,8.49s5.62,1,8.49-1.92S21.53,32,21.53,32,15.91,31,13,33.88Z"/><path class="cls-5" d="M22.85,41.8c0,4.07,4.65,7.36,4.65,7.36s4.65-3.3,4.65-7.36-4.65-7.36-4.65-7.36S22.85,37.73,22.85,41.8Z"/><path class="cls-5" d="M35.38,40.45c2.88,2.88,8.49,1.92,8.49,1.92s1-5.62-1.92-8.49S33.46,32,33.46,32,32.51,37.58,35.38,40.45Z"/><path class="cls-5" d="M43.3,30.64c4.07,0,7.36-4.65,7.36-4.65s-3.3-4.65-7.36-4.65S35.94,26,35.94,26,39.23,30.64,43.3,30.64Z"/><path class="cls-5" d="M42,18.11c2.88-2.88,1.92-8.49,1.92-8.49s-5.62-1-8.49,1.92S33.46,20,33.46,20,39.08,21,42,18.11Z"/><circle class="cls-6" cx="27.5" cy="26" r="5.97"/></g></g></svg>